<svg xmlns="http://www.w3.org/2000/svg" width="1200" height="630" viewBox="0 0 1200 630">
  <defs>
    <linearGradient id="bg" x1="0" y1="0" x2="1" y2="1">
      <stop offset="0%" stop-color="#0e2238"/>
      <stop offset="55%" stop-color="#153b5c"/>
      <stop offset="100%" stop-color="#1a6b63"/>
    </linearGradient>
    <linearGradient id="card" x1="0" y1="0" x2="1" y2="1">
      <stop offset="0%" stop-color="#f7fbff"/>
      <stop offset="100%" stop-color="#e8f1f7"/>
    </linearGradient>
    <filter id="shadow" x="-20%" y="-20%" width="140%" height="140%">
      <feDropShadow dx="0" dy="18" stdDeviation="24" flood-color="#07111d" flood-opacity="0.35"/>
    </filter>
  </defs>

  <rect width="1200" height="630" fill="url(#bg)"/>
  <circle cx="1020" cy="110" r="150" fill="#7fd1c4" opacity="0.18"/>
  <circle cx="1090" cy="500" r="210" fill="#f2cf7f" opacity="0.10"/>
  <circle cx="170" cy="540" r="180" fill="#ffffff" opacity="0.06"/>

  <rect x="88" y="88" width="1024" height="454" rx="34" fill="url(#card)" filter="url(#shadow)"/>

  <text x="138" y="180" fill="#153b5c" font-family="Inter, Avenir, Helvetica, Arial, sans-serif" font-size="28" font-weight="700" letter-spacing="0.08em">GRENDEL</text>
  <text x="138" y="286" fill="#10283e" font-family="Inter, Avenir, Helvetica, Arial, sans-serif" font-size="78" font-weight="800">Nyttekalkulator</text>
  <text x="138" y="348" fill="#35556f" font-family="Inter, Avenir, Helvetica, Arial, sans-serif" font-size="31" font-weight="500">Pedagogisk kalkulator for nytte av seleksjonsmetoder</text>

  <g transform="translate(138 392)">
    <rect x="0" y="0" width="360" height="70" rx="18" fill="#153b5c"/>
    <text x="26" y="44" fill="#ffffff" font-family="Inter, Avenir, Helvetica, Arial, sans-serif" font-size="28" font-weight="700">shiny.grendel.no</text>
  </g>

  <g transform="translate(705 170)">
    <rect x="0" y="0" width="248" height="248" rx="28" fill="#ffffff" opacity="0.9"/>
    <g transform="translate(34 34)">
      <rect x="12" y="130" width="170" height="18" rx="9" fill="#1a6b63"/>
      <rect x="40" y="88" width="142" height="18" rx="9" fill="#7fd1c4"/>
      <rect x="68" y="46" width="114" height="18" rx="9" fill="#153b5c"/>
      <circle cx="80" cy="164" r="12" fill="#f2cf7f"/>
      <circle cx="132" cy="122" r="12" fill="#f2cf7f"/>
      <circle cx="160" cy="80" r="12" fill="#f2cf7f"/>
      <path d="M24 168 C56 152, 82 140, 120 112 C146 94, 162 76, 182 54" fill="none" stroke="#10283e" stroke-width="6" stroke-linecap="round"/>
    </g>
  </g>

  <text x="88" y="592" fill="#dce8ef" font-family="Inter, Avenir, Helvetica, Arial, sans-serif" font-size="22" font-weight="500">Utility analysis for recruitment, selection, and practical decision support</text>
</svg>
